<svg xmlns="http://www.w3.org/2000/svg" width="22" height="22" viewBox="0 0 512 512">
<g>
<path d="M 87.00,510.45 L 84.22,509.85 L 78.84,508.00 L 76.19,506.97 L 71.15,504.35 L 68.67,502.95 L 64.04,499.62 L 61.78,497.89 L 57.63,493.95 L 55.62,491.91 L 52.05,487.45 L 50.34,485.16 L 47.41,480.24 L 46.04,477.73 L 43.84,472.45 L 41.46,464.20 L 41.30,463.42 L 41.03,461.33 L 40.96,460.75 L 40.85,459.38 L 40.79,458.65 L 40.69,456.96 L 40.64,456.06 L 40.55,453.98 L 40.51,452.89 L 40.44,450.36 L 40.40,449.04 L 40.34,446.01 L 40.32,444.43 L 40.27,440.84 L 40.25,438.97 L 40.21,434.76 L 40.20,432.57 L 40.17,427.68 L 40.16,425.14 L 40.15,419.50 L 40.14,416.59 L 40.14,410.16 L 40.14,406.83 L 40.14,399.54 L 40.15,395.78 L 40.16,387.57 L 40.17,383.34 L 40.19,374.15 L 40.23,359.20 L 40.50,261.50 L 43.31,253.54 L 44.19,251.05 L 46.50,246.10 L 47.73,243.65 L 50.60,239.01 L 52.08,236.76 L 55.30,232.73 L 60.31,227.70 L 60.52,227.52 L 61.37,226.86 L 61.86,226.49 L 63.23,225.45 L 63.97,224.90 L 65.82,223.52 L 66.81,222.79 L 69.11,221.09 L 70.32,220.20 L 73.04,218.20 L 74.45,217.17 L 77.55,214.90 L 79.14,213.73 L 82.59,211.22 L 84.35,209.94 L 88.11,207.20 L 90.02,205.81 L 94.05,202.88 L 96.10,201.40 L 100.36,198.30 L 104.69,195.16 L 113.89,188.50 L 118.57,185.11 L 128.27,178.10 L 133.16,174.57 L 143.08,167.41 L 148.04,163.84 L 157.88,156.75 L 162.77,153.23 L 172.26,146.41 L 176.94,143.05 L 185.80,136.70 L 187.96,135.15 L 192.11,132.18 L 194.16,130.71 L 198.06,127.93 L 199.97,126.56 L 203.58,123.99 L 205.34,122.73 L 208.62,120.40 L 210.21,119.26 L 213.13,117.19 L 214.54,116.19 L 217.06,114.42 L 218.26,113.57 L 220.35,112.10 L 221.34,111.41 L 222.95,110.29 L 223.70,109.77 L 224.81,109.02 L 225.87,108.33 L 228.31,106.85 L 232.87,104.62 L 235.14,103.61 L 239.74,102.21 L 242.08,101.60 L 247.20,100.91 L 248.54,100.77 L 251.39,100.61 L 256.00,100.51 L 257.62,100.51 L 260.61,100.61 L 262.07,100.67 L 264.79,100.91 L 267.46,101.18 L 272.25,102.21 L 274.60,102.82 L 279.12,104.62 L 286.13,108.32 L 286.44,108.51 L 287.49,109.20 L 288.08,109.59 L 289.64,110.65 L 290.48,111.22 L 292.52,112.64 L 293.60,113.39 L 296.08,115.13 L 297.37,116.03 L 300.26,118.07 L 301.76,119.13 L 305.02,121.44 L 306.69,122.63 L 310.29,125.20 L 312.13,126.51 L 316.03,129.29 L 318.01,130.71 L 322.17,133.69 L 324.29,135.21 L 328.68,138.36 L 333.12,141.55 L 342.55,148.34 L 347.33,151.78 L 357.21,158.92 L 362.18,162.51 L 372.23,169.79 L 377.25,173.43 L 387.18,180.65 L 392.11,184.23 L 401.65,191.18 L 406.34,194.60 L 415.19,201.07 L 417.35,202.65 L 421.49,205.68 L 423.52,207.17 L 427.39,210.02 L 429.29,211.41 L 432.86,214.04 L 434.60,215.32 L 437.82,217.71 L 439.39,218.87 L 442.24,220.98 L 443.61,222.01 L 446.05,223.83 L 447.21,224.70 L 449.21,226.21 L 450.14,226.92 L 451.65,228.08 L 452.34,228.62 L 453.33,229.41 L 454.20,230.15 L 455.79,231.73 L 458.69,235.17 L 460.10,236.94 L 462.61,240.76 L 463.82,242.72 L 465.96,246.93 L 468.73,253.67 L 471.50,261.50 L 471.77,359.20 L 471.78,362.60 L 471.80,369.08 L 471.81,372.26 L 471.83,378.32 L 471.84,381.30 L 471.85,386.95 L 471.86,389.73 L 471.87,395.00 L 471.87,397.59 L 471.88,402.49 L 471.88,404.90 L 471.88,409.45 L 471.89,411.68 L 471.88,415.88 L 471.88,417.95 L 471.87,421.83 L 471.86,423.74 L 471.84,427.32 L 471.83,429.07 L 471.81,432.35 L 471.79,433.96 L 471.76,436.98 L 471.74,438.45 L 471.69,441.20 L 471.65,443.89 L 471.52,448.56 L 471.44,450.78 L 471.26,454.61 L 471.17,456.44 L 470.93,459.56 L 470.80,461.05 L 470.50,463.59 L 470.34,464.80 L 469.96,466.89 L 469.76,467.88 L 469.31,469.64 L 468.84,471.33 L 467.63,474.27 L 465.36,479.00 L 464.74,480.28 L 463.22,482.85 L 462.42,484.14 L 460.59,486.71 L 459.64,487.99 L 457.54,490.49 L 456.46,491.72 L 454.16,494.10 L 451.81,496.44 L 446.73,500.54 L 445.44,501.49 L 442.83,503.19 L 438.93,505.37 L 437.24,506.20 L 434.30,507.56 L 432.85,508.20 L 429.88,509.21 L 428.33,509.68 L 424.69,510.39 L 423.71,510.55 L 421.51,510.82 L 420.36,510.95 L 417.78,511.17 L 416.43,511.27 L 413.38,511.43 L 411.79,511.51 L 408.19,511.63 L 406.31,511.68 L 402.08,511.76 L 399.89,511.79 L 394.95,511.83 L 392.39,511.85 L 386.67,511.86 L 383.70,511.86 L 377.11,511.86 L 373.70,511.85 L 366.17,511.82 L 353.71,511.77 L 349.84,511.76 L 342.80,511.72 L 339.39,511.71 L 333.21,511.68 L 330.23,511.66 L 324.86,511.63 L 322.27,511.61 L 317.65,511.58 L 315.42,511.56 L 311.48,511.52 L 309.59,511.50 L 306.28,511.45 L 304.69,511.42 L 301.93,511.36 L 300.62,511.33 L 298.36,511.26 L 297.29,511.22 L 295.47,511.13 L 294.61,511.09 L 293.17,510.99 L 292.49,510.93 L 291.36,510.81 L 290.83,510.75 L 289.95,510.61 L 289.13,510.46 L 287.97,510.09 L 286.50,509.41 L 285.95,509.12 L 284.71,508.26 L 284.08,507.80 L 282.79,506.69 L 282.16,506.11 L 280.98,504.89 L 279.50,503.08 L 276.50,498.83 L 276.00,452.00 L 275.50,405.17 L 272.50,400.91 L 271.47,399.44 L 269.05,397.06 L 267.79,395.96 L 265.02,394.31 L 263.60,393.57 L 260.60,392.65 L 259.09,392.29 L 256.00,392.10 L 254.45,392.10 L 251.40,392.65 L 249.88,393.02 L 246.98,394.31 L 245.57,395.04 L 242.95,397.06 L 239.50,400.91 L 236.50,405.17 L 236.00,452.00 L 235.50,498.83 L 232.50,503.08 L 232.09,503.66 L 231.02,504.89 L 230.46,505.50 L 229.21,506.69 L 228.57,507.26 L 227.29,508.26 L 225.50,509.41 L 225.01,509.67 L 224.03,510.09 L 223.49,510.29 L 222.05,510.61 L 221.64,510.68 L 220.64,510.81 L 220.10,510.87 L 218.81,510.98 L 218.13,511.04 L 216.49,511.13 L 215.62,511.17 L 213.57,511.25 L 212.49,511.28 L 209.96,511.35 L 208.64,511.38 L 205.57,511.43 L 203.97,511.45 L 200.30,511.49 L 198.39,511.51 L 194.06,511.54 L 191.81,511.55 L 186.75,511.58 L 184.13,511.59 L 178.29,511.62 L 175.26,511.63 L 168.57,511.65 L 157.50,511.68 L 154.26,511.69 L 148.21,511.70 L 145.26,511.71 L 139.79,511.72 L 137.12,511.72 L 132.17,511.72 L 129.77,511.72 L 125.33,511.71 L 123.17,511.71 L 119.21,511.69 L 117.29,511.68 L 113.78,511.66 L 112.07,511.65 L 108.97,511.61 L 107.48,511.59 L 104.76,511.55 L 103.45,511.53 L 101.10,511.47 L 99.97,511.45 L 97.94,511.38 L 96.96,511.35 L 95.23,511.27 L 94.40,511.23 L 92.94,511.15 L 91.54,511.06 L 89.41,510.84 L 88.44,510.72 M 196.02,439.25 L 196.02,436.94 L 196.03,432.67 L 196.04,430.60 L 196.06,426.79 L 196.08,424.94 L 196.12,421.54 L 196.15,419.89 L 196.22,416.87 L 196.26,415.41 L 196.35,412.73 L 196.41,411.43 L 196.54,409.04 L 196.68,406.73 L 197.09,402.84 L 197.31,400.99 L 197.92,397.79 L 198.24,396.25 L 199.08,393.44 L 199.53,392.06 L 200.64,389.33 L 202.65,385.00 L 203.22,383.83 L 204.66,381.40 L 205.43,380.18 L 207.20,377.70 L 209.05,375.21 L 213.46,370.39 L 215.73,368.04 L 220.56,363.93 L 221.77,362.97 L 224.17,361.29 L 227.69,359.19 L 229.68,358.15 L 234.28,356.31 L 236.65,355.44 L 241.66,354.03 L 244.17,353.39 L 249.12,352.54 L 256.00,352.00 L 258.12,352.00 L 262.88,352.54 L 265.30,352.88 L 270.34,354.03 L 272.86,354.67 L 277.72,356.31 L 284.31,359.19 L 285.46,359.79 L 287.83,361.29 L 289.02,362.09 L 291.44,363.93 L 293.86,365.84 L 298.54,370.39 L 300.82,372.73 L 304.80,377.70 L 305.72,378.94 L 307.34,381.40 L 309.35,385.00 L 310.10,386.53 L 311.36,389.33 L 311.95,390.71 L 312.92,393.44 L 313.37,394.83 L 314.08,397.79 L 314.41,399.33 L 314.91,402.84 L 315.14,404.69 L 315.46,409.05 L 315.53,410.21 L 315.65,412.74 L 315.70,414.04 L 315.78,416.88 L 315.82,418.35 L 315.88,421.56 L 315.90,423.21 L 315.94,426.81 L 315.95,428.66 L 315.97,432.69 L 315.98,439.28 L 316.00,472.05 L 366.75,471.78 L 369.83,471.76 L 375.44,471.73 L 378.16,471.71 L 383.08,471.68 L 385.47,471.67 L 389.76,471.63 L 391.83,471.62 L 395.54,471.58 L 397.32,471.56 L 400.49,471.52 L 402.01,471.50 L 404.69,471.44 L 405.98,471.42 L 408.22,471.36 L 409.29,471.33 L 411.14,471.25 L 412.02,471.22 L 413.53,471.13 L 414.24,471.08 L 415.46,470.98 L 416.61,470.87 L 418.23,470.60 L 418.97,470.45 L 420.05,470.08 L 421.50,469.41 L 422.05,469.12 L 423.29,468.26 L 423.92,467.80 L 425.21,466.69 L 425.84,466.11 L 427.02,464.89 L 428.50,463.08 L 431.50,458.83 L 431.78,364.16 L 431.79,360.89 L 431.81,354.67 L 431.82,351.61 L 431.84,345.80 L 431.84,342.94 L 431.86,337.53 L 431.87,334.87 L 431.88,329.83 L 431.89,327.36 L 431.90,322.69 L 431.90,320.40 L 431.91,316.08 L 431.91,313.96 L 431.91,309.97 L 431.91,308.02 L 431.90,304.36 L 431.89,302.57 L 431.88,299.21 L 431.87,297.57 L 431.85,294.50 L 431.84,293.01 L 431.81,290.22 L 431.79,288.86 L 431.75,286.34 L 431.71,283.87 L 431.59,279.67 L 431.53,277.68 L 431.36,274.34 L 431.27,272.77 L 431.05,270.16 L 430.93,268.94 L 430.65,266.96 L 430.50,266.04 L 430.14,264.56 L 429.96,263.87 L 429.53,262.78 L 429.07,261.76 L 427.92,260.38 L 425.74,258.34 L 425.60,258.22 L 424.91,257.66 L 424.49,257.33 L 423.26,256.39 L 422.58,255.88 L 420.85,254.59 L 419.93,253.90 L 417.74,252.27 L 416.59,251.42 L 413.97,249.49 L 412.61,248.49 L 409.60,246.29 L 408.05,245.15 L 404.69,242.69 L 402.96,241.44 L 399.28,238.75 L 397.41,237.39 L 393.45,234.50 L 391.43,233.04 L 387.23,229.99 L 382.96,226.89 L 373.86,220.30 L 369.23,216.95 L 359.62,210.00 L 354.78,206.50 L 344.94,199.41 L 340.03,195.87 L 330.27,188.84 L 325.42,185.35 L 316.02,178.60 L 311.39,175.28 L 302.65,169.02 L 300.51,167.49 L 296.42,164.56 L 294.41,163.12 L 290.58,160.39 L 288.70,159.05 L 285.17,156.54 L 283.44,155.31 L 280.24,153.04 L 278.69,151.94 L 275.87,149.94 L 274.50,148.98 L 272.09,147.28 L 270.93,146.47 L 268.96,145.09 L 268.03,144.45 L 266.54,143.42 L 265.86,142.95 L 264.88,142.30 L 264.04,141.78 L 262.93,141.21 L 260.28,140.50 L 258.91,140.21 L 255.99,140.07 L 254.54,140.07 L 251.71,140.50 L 247.96,141.79 L 247.85,141.85 L 247.22,142.26 L 246.84,142.52 L 245.68,143.31 L 245.04,143.75 L 243.40,144.89 L 242.52,145.51 L 240.43,146.98 L 239.33,147.76 L 236.82,149.53 L 235.51,150.45 L 232.62,152.51 L 231.13,153.57 L 227.89,155.88 L 226.23,157.06 L 222.67,159.60 L 220.86,160.89 L 217.02,163.63 L 215.07,165.02 L 211.00,167.94 L 206.87,170.90 L 198.02,177.24 L 193.52,180.46 L 184.15,187.19 L 179.42,190.59 L 169.81,197.51 L 165.00,200.97 L 155.41,207.87 L 150.65,211.31 L 141.38,218.00 L 136.81,221.30 L 128.12,227.58 L 126.00,229.11 L 121.92,232.07 L 119.90,233.53 L 116.06,236.31 L 114.18,237.68 L 110.61,240.27 L 108.87,241.54 L 105.62,243.91 L 104.03,245.06 L 101.13,247.18 L 99.72,248.20 L 97.20,250.05 L 95.99,250.94 L 93.88,252.49 L 92.89,253.23 L 91.23,254.46 L 90.46,255.03 L 89.29,255.91 L 88.13,256.81 L 87.04,257.69 L 85.29,259.00 L 84.48,259.67 L 83.21,261.32 L 82.92,261.80 L 82.41,263.00 L 82.17,263.64 L 81.76,265.27 L 81.57,266.14 L 81.24,268.31 L 81.09,269.48 L 80.84,272.33 L 80.72,273.84 L 80.53,277.49 L 80.45,279.42 L 80.32,283.99 L 80.29,285.19 L 80.23,287.80 L 80.21,289.14 L 80.17,292.01 L 80.15,293.49 L 80.12,296.65 L 80.11,298.28 L 80.08,301.75 L 80.07,303.52 L 80.06,307.31 L 80.05,309.25 L 80.04,313.38 L 80.04,315.48 L 80.03,319.96 L 80.03,322.24 L 80.03,327.09 L 80.02,329.56 L 80.03,334.78 L 80.03,337.44 L 80.03,343.07 L 80.03,345.93 L 80.03,351.96 L 80.03,361.50 L 80.03,365.40 L 80.03,372.85 L 80.03,376.52 L 80.04,383.49 L 80.04,386.91 L 80.06,393.41 L 80.07,396.60 L 80.09,402.62 L 80.10,405.57 L 80.12,411.11 L 80.13,413.83 L 80.17,418.90 L 80.18,421.38 L 80.22,425.99 L 80.24,428.23 L 80.28,432.37 L 80.30,434.38 L 80.35,438.05 L 80.37,439.82 L 80.42,443.02 L 80.45,444.57 L 80.51,447.30 L 80.54,448.62 L 80.61,450.89 L 80.64,451.97 L 80.71,453.78 L 80.74,454.63 L 80.82,455.98 L 80.86,456.60 L 80.94,457.49 L 81.07,458.31 L 81.23,458.90 L 81.77,460.13 L 82.06,460.75 L 82.83,462.01 L 83.65,463.28 L 85.80,465.70 L 86.92,466.86 L 89.39,468.79 L 90.01,469.22 L 91.25,469.93 L 93.05,470.70 L 93.33,470.79 L 94.63,470.95 L 95.40,471.04 L 97.67,471.18 L 98.92,471.25 L 102.15,471.38 L 103.88,471.44 L 108.07,471.55 L 110.29,471.60 L 115.45,471.68 L 118.15,471.72 L 124.27,471.78 L 127.45,471.81 L 134.54,471.86 L 146.25,471.90 L 196.00,472.00 L 196.02,439.25 M 13.05,198.75 L 11.81,198.33 L 9.26,196.75 L 8.00,195.86 L 5.66,193.58 L 4.54,192.38 L 2.72,189.76 L 0.95,185.81 L 0.55,184.34 L 0.25,181.30 L 0.19,179.77 L 0.52,176.76 L 0.76,175.27 L 1.70,172.47 L 3.75,168.70 L 3.87,168.54 L 4.49,167.95 L 4.87,167.60 L 6.01,166.65 L 6.64,166.12 L 8.31,164.80 L 9.21,164.09 L 11.41,162.40 L 12.58,161.51 L 15.32,159.44 L 16.75,158.36 L 20.03,155.91 L 21.74,154.63 L 25.58,151.80 L 27.56,150.33 L 31.95,147.11 L 34.21,145.45 L 39.17,141.84 L 41.71,139.98 L 47.23,135.96 L 50.06,133.91 L 56.16,129.49 L 59.28,127.23 L 65.95,122.41 L 69.36,119.95 L 76.62,114.72 L 80.33,112.05 L 88.18,106.40 L 92.19,103.52 L 100.64,97.45 L 114.00,87.87 L 121.39,82.57 L 135.68,72.34 L 139.20,69.82 L 146.07,64.91 L 149.48,62.48 L 156.09,57.75 L 159.35,55.42 L 165.66,50.92 L 168.78,48.69 L 174.75,44.43 L 177.69,42.34 L 183.28,38.35 L 186.03,36.39 L 191.21,32.70 L 193.74,30.90 L 198.47,27.54 L 200.77,25.90 L 205.01,22.89 L 207.07,21.44 L 210.77,18.81 L 212.56,17.55 L 215.70,15.33 L 217.19,14.27 L 219.73,12.49 L 220.92,11.66 L 222.81,10.34 L 223.67,9.74 L 224.88,8.91 L 225.88,8.25 L 228.02,6.98 L 232.51,4.90 L 234.78,3.93 L 239.47,2.44 L 241.84,1.77 L 246.68,0.87 L 249.11,0.50 L 254.03,0.20 L 256.49,0.13 L 261.41,0.44 L 263.86,0.66 L 268.72,1.57 L 271.14,2.10 L 275.87,3.61 L 282.75,6.56 L 282.99,6.68 L 284.00,7.31 L 284.60,7.69 L 286.31,8.83 L 287.25,9.46 L 289.63,11.07 L 290.90,11.94 L 293.89,14.00 L 295.47,15.09 L 299.05,17.57 L 300.91,18.87 L 305.03,21.74 L 307.15,23.23 L 311.78,26.48 L 314.15,28.14 L 319.24,31.73 L 321.84,33.56 L 327.36,37.46 L 330.17,39.44 L 336.07,43.62 L 339.06,45.74 L 345.31,50.18 L 348.48,52.42 L 355.03,57.09 L 358.35,59.45 L 365.17,64.31 L 368.61,66.76 L 375.67,71.80 L 397.50,87.43 L 402.49,91.00 L 411.88,97.74 L 416.48,101.04 L 425.10,107.24 L 429.32,110.27 L 437.20,115.95 L 441.05,118.72 L 448.21,123.89 L 451.70,126.42 L 458.17,131.10 L 461.32,133.38 L 467.12,137.59 L 469.93,139.64 L 475.08,143.39 L 477.58,145.22 L 482.10,148.54 L 484.29,150.15 L 488.22,153.05 L 490.11,154.45 L 493.45,156.95 L 495.06,158.15 L 497.85,160.27 L 499.18,161.28 L 501.45,163.03 L 502.52,163.86 L 504.27,165.26 L 505.09,165.91 L 506.37,166.98 L 506.95,167.47 L 507.77,168.23 L 508.50,169.02 L 509.15,169.93 L 510.07,171.42 L 510.48,172.15 L 510.98,173.61 L 511.19,174.37 L 511.40,176.20 L 511.50,179.84 L 511.50,181.13 L 511.27,183.54 L 511.12,184.71 L 510.59,186.86 L 510.29,187.91 L 509.45,189.81 L 508.99,190.73 L 507.84,192.39 L 507.22,193.19 L 505.76,194.61 L 504.99,195.29 L 503.20,196.48 L 502.27,197.04 L 500.17,198.00 L 496.64,199.17 L 495.72,199.42 L 494.15,199.73 L 493.40,199.85 L 492.00,199.91 L 491.30,199.91 L 489.85,199.73 L 487.37,199.18 L 487.15,199.12 L 486.43,198.79 L 486.02,198.59 L 484.91,197.96 L 484.30,197.61 L 482.76,196.66 L 481.93,196.14 L 479.93,194.84 L 478.87,194.15 L 476.37,192.48 L 475.06,191.60 L 472.04,189.54 L 470.46,188.46 L 466.88,185.99 L 465.02,184.70 L 460.84,181.79 L 458.68,180.28 L 453.88,176.91 L 451.40,175.17 L 445.95,171.31 L 443.14,169.32 L 436.99,164.96 L 433.83,162.72 L 426.96,157.83 L 423.43,155.31 L 415.80,149.87 L 411.89,147.08 L 403.48,141.06 L 399.17,137.98 L 389.93,131.36 L 387.57,129.67 L 382.69,126.17 L 375.12,120.74 L 367.72,115.44 L 353.43,105.20 L 349.91,102.68 L 343.05,97.77 L 339.65,95.34 L 333.06,90.63 L 329.80,88.30 L 323.51,83.81 L 320.41,81.60 L 314.46,77.36 L 311.54,75.27 L 305.97,71.31 L 303.24,69.36 L 298.10,65.70 L 295.58,63.91 L 290.89,60.59 L 288.61,58.96 L 284.41,55.99 L 282.38,54.56 L 278.72,51.97 L 276.96,50.73 L 273.87,48.55 L 272.40,47.52 L 269.92,45.79 L 268.76,44.98 L 266.93,43.71 L 266.10,43.13 L 264.95,42.36 L 264.04,41.77 L 262.93,41.20 L 260.27,40.49 L 258.90,40.21 L 255.99,40.07 L 254.53,40.07 L 251.71,40.50 L 247.96,41.79 L 247.87,41.84 L 247.45,42.10 L 247.21,42.26 L 246.48,42.75 L 246.08,43.02 L 245.04,43.73 L 244.49,44.11 L 243.17,45.03 L 242.47,45.52 L 240.85,46.65 L 240.01,47.24 L 238.11,48.57 L 237.13,49.26 L 234.96,50.79 L 233.84,51.57 L 231.41,53.29 L 230.16,54.18 L 227.46,56.08 L 226.08,57.06 L 223.14,59.15 L 221.64,60.21 L 218.45,62.48 L 216.82,63.63 L 213.40,66.07 L 211.66,67.31 L 208.00,69.91 L 206.15,71.23 L 202.27,73.99 L 198.35,76.79 L 189.85,82.85 L 185.51,85.95 L 176.23,92.58 L 171.50,95.96 L 161.49,103.12 L 156.40,106.77 L 145.72,114.42 L 140.30,118.30 L 129.01,126.39 L 123.29,130.49 L 111.45,138.98 L 105.46,143.28 L 93.13,152.13 L 86.90,156.60 L 74.13,165.77 L 54.56,179.85 L 51.40,182.11 L 45.41,186.37 L 43.97,187.39 L 41.24,189.31 L 39.91,190.24 L 37.48,191.94 L 36.30,192.75 L 34.23,194.18 L 33.24,194.85 L 31.60,195.96 L 30.84,196.46 L 29.69,197.20 L 28.63,197.84 L 27.65,198.32 L 25.16,199.00 L 23.86,199.29 L 21.01,199.57 L 19.58,199.65 L 16.77,199.49 L 15.41,199.36 Z" fill="rgba(255,255,255,1)"/>
</g>
</svg>