<svg xmlns="http://www.w3.org/2000/svg" width="24" height="24" viewBox="0 0 512 512">
<g>
<path d="M 354.00,425.64 L 353.24,425.47 L 351.49,424.99 L 350.59,424.73 L 348.71,424.11 L 347.78,423.79 L 346.01,423.11 L 343.71,422.11 L 343.04,421.78 L 341.53,420.89 L 340.75,420.42 L 339.12,419.28 L 337.46,418.11 L 334.14,415.34 L 332.52,413.93 L 329.78,411.15 L 329.16,410.48 L 328.15,409.24 L 327.06,407.61 L 325.66,405.00 L 181.80,405.00 L 177.81,405.00 L 170.16,405.00 L 166.39,405.00 L 159.15,405.00 L 155.59,405.00 L 148.76,404.99 L 145.39,404.99 L 138.96,404.99 L 135.79,404.99 L 129.74,404.98 L 126.76,404.98 L 121.08,404.97 L 118.29,404.97 L 112.97,404.96 L 110.35,404.96 L 105.38,404.95 L 102.93,404.95 L 98.29,404.94 L 96.01,404.93 L 91.70,404.92 L 89.58,404.91 L 85.58,404.90 L 83.61,404.89 L 79.90,404.87 L 78.09,404.86 L 74.67,404.84 L 73.00,404.84 L 69.85,404.81 L 66.78,404.79 L 61.40,404.74 L 58.84,404.71 L 54.41,404.65 L 52.30,404.62 L 48.73,404.55 L 47.03,404.51 L 44.21,404.42 L 42.89,404.37 L 40.73,404.27 L 39.73,404.22 L 38.14,404.10 L 37.40,404.04 L 36.28,403.91 L 35.77,403.84 L 35.03,403.70 L 34.23,403.45 L 33.18,403.01 L 31.26,401.93 L 30.34,401.36 L 28.69,400.04 L 27.90,399.36 L 26.51,397.85 L 25.85,397.07 L 24.73,395.39 L 24.20,394.53 L 23.35,392.72 L 22.95,391.81 L 22.36,389.90 L 22.09,388.94 L 21.76,386.98 L 21.63,385.99 L 21.56,384.00 L 21.56,383.00 L 21.76,381.02 L 21.89,380.04 L 22.36,378.10 L 22.62,377.14 L 23.35,375.28 L 23.74,374.36 L 24.73,372.61 L 25.26,371.75 L 26.51,370.15 L 27.17,369.38 L 28.69,367.96 L 29.48,367.27 L 31.26,366.07 L 34.23,364.55 L 34.44,364.46 L 35.03,364.30 L 35.36,364.23 L 36.28,364.09 L 36.79,364.02 L 38.14,363.90 L 38.87,363.84 L 40.73,363.73 L 41.74,363.67 L 44.21,363.58 L 45.54,363.54 L 48.73,363.45 L 50.42,363.42 L 54.41,363.35 L 56.51,363.32 L 61.40,363.26 L 63.97,363.23 L 69.85,363.19 L 71.39,363.18 L 74.67,363.16 L 76.34,363.15 L 79.90,363.13 L 81.72,363.12 L 85.58,363.10 L 87.54,363.10 L 91.70,363.08 L 93.82,363.08 L 98.29,363.06 L 100.57,363.06 L 105.38,363.05 L 107.82,363.04 L 112.97,363.04 L 115.59,363.03 L 121.08,363.03 L 123.88,363.02 L 129.74,363.02 L 132.72,363.01 L 138.96,363.01 L 142.13,363.01 L 148.76,363.01 L 152.12,363.00 L 159.15,363.00 L 162.72,363.00 L 170.16,363.00 L 181.80,363.00 L 325.66,363.00 L 327.06,360.39 L 327.33,359.88 L 328.19,358.69 L 328.66,358.08 L 329.86,356.74 L 331.13,355.38 L 334.32,352.51 L 335.98,351.09 L 339.47,348.52 L 340.33,347.93 L 341.99,346.89 L 344.31,345.63 L 346.45,344.62 L 350.82,343.14 L 353.01,342.50 L 357.42,341.75 L 359.63,341.47 L 364.02,341.44 L 366.21,341.51 L 370.53,342.19 L 372.67,342.62 L 376.85,343.98 L 378.92,344.75 L 382.90,346.80 L 384.86,347.91 L 388.58,350.63 L 393.80,355.44 L 394.86,356.57 L 396.68,358.71 L 397.55,359.76 L 399.03,361.80 L 399.72,362.81 L 400.88,364.85 L 401.42,365.88 L 402.29,367.99 L 402.69,369.07 L 403.30,371.35 L 403.58,372.52 L 403.96,375.05 L 404.13,376.36 L 404.33,379.22 L 404.44,384.00 L 404.44,385.70 L 404.33,388.75 L 404.25,390.23 L 403.96,392.91 L 403.80,394.22 L 403.30,396.61 L 403.03,397.78 L 402.30,399.96 L 401.91,401.03 L 400.91,403.09 L 400.38,404.11 L 399.09,406.12 L 398.41,407.13 L 396.79,409.17 L 393.97,412.37 L 392.24,414.22 L 388.80,417.28 L 387.07,418.71 L 383.48,421.00 L 381.66,422.06 L 377.74,423.69 L 371.28,425.53 L 370.28,425.74 L 368.55,426.08 L 367.72,426.24 L 366.25,426.48 L 364.83,426.70 L 362.40,426.81 L 361.20,426.82 L 358.67,426.53 L 358.00,426.43 L 356.52,426.16 L 355.75,426.01 M 460.50,403.40 L 459.47,402.84 L 457.61,401.58 L 456.71,400.93 L 455.10,399.52 L 454.33,398.79 L 452.97,397.24 L 452.33,396.45 L 451.23,394.79 L 450.19,393.10 L 448.89,389.50 L 448.36,387.67 L 448.08,383.94 L 448.06,382.08 L 448.80,378.41 L 449.05,377.51 L 449.74,375.75 L 450.12,374.88 L 451.07,373.20 L 451.57,372.38 L 452.77,370.81 L 453.41,370.04 L 454.87,368.60 L 455.63,367.90 L 457.35,366.62 L 460.21,364.91 L 461.34,364.33 L 464.15,363.57 L 465.61,363.26 L 468.77,363.05 L 470.37,363.02 L 473.51,363.38 L 477.77,364.55 L 478.72,364.95 L 480.47,365.91 L 481.32,366.41 L 482.86,367.56 L 483.60,368.16 L 484.92,369.49 L 485.56,370.17 L 486.67,371.64 L 487.72,373.14 L 489.18,376.47 L 489.80,378.17 L 490.36,381.76 L 490.53,383.56 L 490.18,387.19 L 489.89,389.00 L 488.61,392.49 L 487.86,394.19 L 485.63,397.33 L 485.01,398.08 L 483.60,399.49 L 481.21,401.43 L 480.32,402.05 L 478.77,402.96 L 478.00,403.37 L 476.46,403.93 L 475.65,404.17 L 473.77,404.47 L 470.21,404.73 L 469.01,404.79 L 466.98,404.78 L 466.01,404.75 L 464.36,404.58 L 463.58,404.47 L 462.25,404.13 L 461.61,403.93 M 140.25,297.48 L 138.07,297.01 L 134.05,295.66 L 132.09,294.91 L 128.41,292.94 L 126.61,291.87 L 123.14,289.22 L 118.03,284.37 L 116.99,283.27 L 115.21,281.17 L 114.36,280.14 L 112.91,278.12 L 112.22,277.11 L 111.09,275.09 L 110.55,274.07 L 109.70,271.96 L 109.30,270.89 L 108.70,268.61 L 108.42,267.44 L 108.04,264.91 L 107.87,263.61 L 107.67,260.75 L 107.56,256.00 L 107.56,254.29 L 107.67,251.22 L 107.75,249.74 L 108.04,247.05 L 108.21,245.74 L 108.70,243.35 L 108.98,242.18 L 109.71,239.99 L 110.11,238.91 L 111.12,236.85 L 111.66,235.82 L 112.97,233.80 L 113.67,232.78 L 115.32,230.71 L 118.20,227.44 L 119.85,225.68 L 123.42,222.63 L 125.24,221.19 L 129.10,218.80 L 131.06,217.69 L 135.15,215.98 L 137.22,215.21 L 141.47,214.19 L 143.62,213.77 L 147.98,213.44 L 150.17,213.37 L 154.58,213.75 L 156.79,214.04 L 161.18,215.14 L 167.69,217.63 L 168.42,217.98 L 170.01,218.89 L 170.83,219.38 L 172.53,220.52 L 174.25,221.72 L 177.68,224.51 L 179.33,225.92 L 182.14,228.74 L 182.77,229.42 L 183.81,230.69 L 184.94,232.39 L 186.34,235.00 L 330.20,235.00 L 334.19,235.00 L 341.84,235.00 L 345.61,235.00 L 352.85,235.00 L 356.41,235.00 L 363.24,235.01 L 366.61,235.01 L 373.04,235.01 L 376.21,235.01 L 382.26,235.02 L 385.24,235.02 L 390.92,235.03 L 393.71,235.03 L 399.03,235.04 L 401.65,235.04 L 406.62,235.05 L 409.07,235.05 L 413.71,235.06 L 415.99,235.07 L 420.30,235.08 L 422.42,235.09 L 426.42,235.10 L 428.39,235.11 L 432.10,235.13 L 433.91,235.14 L 437.33,235.16 L 439.00,235.16 L 442.15,235.19 L 445.22,235.21 L 450.60,235.26 L 453.16,235.29 L 457.59,235.35 L 459.70,235.38 L 463.27,235.45 L 464.97,235.49 L 467.79,235.58 L 469.11,235.63 L 471.27,235.73 L 472.27,235.78 L 473.86,235.90 L 474.60,235.96 L 475.72,236.09 L 476.23,236.16 L 476.97,236.30 L 477.77,236.55 L 478.72,236.95 L 480.47,237.91 L 481.32,238.41 L 482.86,239.57 L 483.61,240.17 L 484.93,241.49 L 485.57,242.17 L 486.68,243.64 L 487.73,245.15 L 489.19,248.48 L 489.80,250.18 L 490.36,253.76 L 490.53,255.57 L 490.17,259.20 L 489.88,261.01 L 488.60,264.50 L 487.84,266.21 L 485.60,269.35 L 484.98,270.11 L 483.57,271.52 L 481.16,273.46 L 476.83,276.50 L 331.58,276.76 L 186.33,277.02 L 184.94,279.62 L 184.66,280.13 L 183.81,281.31 L 183.34,281.92 L 182.14,283.26 L 180.88,284.61 L 177.68,287.49 L 176.03,288.90 L 172.56,291.46 L 171.70,292.06 L 170.05,293.09 L 167.75,294.34 L 166.48,294.93 L 163.21,296.08 L 161.51,296.64 L 157.85,297.59 L 156.04,298.02 L 152.65,298.61 L 151.85,298.73 L 150.41,298.87 L 148.57,298.92 L 148.28,298.91 L 147.27,298.78 L 146.71,298.70 L 145.27,298.47 L 143.76,298.21 M 34.01,275.41 L 32.96,274.95 L 31.08,273.86 L 30.16,273.28 L 28.54,271.95 L 27.76,271.26 L 26.39,269.73 L 25.75,268.95 L 24.64,267.27 L 24.13,266.41 L 23.29,264.60 L 22.90,263.68 L 22.32,261.78 L 21.81,259.86 L 21.57,255.89 L 21.58,253.91 L 22.39,250.01 L 22.66,249.06 L 23.39,247.21 L 23.78,246.30 L 24.78,244.56 L 25.30,243.71 L 26.55,242.12 L 27.21,241.34 L 28.72,239.93 L 29.51,239.25 L 31.28,238.06 L 34.23,236.55 L 35.98,235.82 L 39.52,235.10 L 41.29,234.86 L 44.78,235.05 L 46.51,235.24 L 49.80,236.25 L 51.41,236.84 L 54.37,238.56 L 55.80,239.50 L 58.28,241.85 L 59.45,243.10 L 61.33,245.99 L 62.17,247.49 L 63.29,250.82 L 63.98,256.22 L 63.97,258.05 L 63.23,261.50 L 62.75,263.17 L 61.18,266.24 L 60.30,267.71 L 58.05,270.29 L 56.86,271.52 L 54.07,273.53 L 52.63,274.45 L 49.45,275.80 L 47.83,276.38 L 44.42,276.96 L 42.70,277.15 L 39.20,276.88 L 37.45,276.63 M 354.00,169.64 L 351.39,169.07 L 346.31,167.17 L 343.82,166.11 L 339.15,163.34 L 336.90,161.87 L 332.90,158.39 L 331.95,157.49 L 330.23,155.58 L 327.93,152.58 L 325.50,149.01 L 181.72,149.01 L 177.73,149.01 L 170.09,149.01 L 166.31,149.01 L 159.09,149.00 L 155.52,149.00 L 148.70,149.00 L 145.34,149.00 L 138.91,148.99 L 135.74,148.99 L 129.69,148.99 L 126.72,148.98 L 121.04,148.98 L 118.25,148.98 L 112.93,148.97 L 110.32,148.96 L 105.34,148.95 L 102.90,148.95 L 98.26,148.94 L 95.99,148.93 L 91.67,148.92 L 89.56,148.91 L 85.55,148.90 L 83.59,148.89 L 79.89,148.87 L 78.07,148.87 L 74.65,148.85 L 72.98,148.84 L 69.84,148.82 L 66.77,148.79 L 61.39,148.74 L 58.83,148.71 L 54.40,148.65 L 52.30,148.62 L 48.72,148.55 L 47.03,148.51 L 44.21,148.42 L 42.89,148.37 L 40.73,148.27 L 39.73,148.22 L 38.14,148.10 L 37.40,148.04 L 36.28,147.91 L 35.77,147.84 L 35.03,147.70 L 34.23,147.45 L 33.18,147.01 L 31.26,145.93 L 30.34,145.36 L 28.69,144.04 L 27.90,143.36 L 26.51,141.85 L 25.85,141.07 L 24.73,139.39 L 24.20,138.53 L 23.35,136.72 L 22.95,135.81 L 22.36,133.90 L 22.09,132.94 L 21.76,130.98 L 21.63,129.99 L 21.56,128.00 L 21.56,127.00 L 21.76,125.02 L 21.89,124.04 L 22.36,122.10 L 22.62,121.14 L 23.35,119.28 L 23.74,118.36 L 24.73,116.61 L 25.26,115.75 L 26.51,114.15 L 27.17,113.38 L 28.69,111.96 L 29.48,111.27 L 31.26,110.07 L 34.23,108.55 L 34.44,108.46 L 35.03,108.30 L 35.36,108.23 L 36.28,108.09 L 36.79,108.02 L 38.14,107.90 L 38.87,107.84 L 40.73,107.73 L 41.74,107.67 L 44.21,107.58 L 45.54,107.54 L 48.73,107.45 L 50.42,107.42 L 54.41,107.35 L 56.51,107.32 L 61.40,107.26 L 63.97,107.23 L 69.85,107.19 L 71.39,107.18 L 74.67,107.16 L 76.34,107.15 L 79.90,107.13 L 81.72,107.12 L 85.58,107.10 L 87.54,107.10 L 91.70,107.08 L 93.82,107.08 L 98.29,107.06 L 100.57,107.06 L 105.38,107.05 L 107.82,107.04 L 112.97,107.04 L 115.59,107.03 L 121.08,107.03 L 123.88,107.02 L 129.74,107.02 L 132.72,107.01 L 138.96,107.01 L 142.13,107.01 L 148.76,107.01 L 152.12,107.00 L 159.15,107.00 L 162.72,107.00 L 170.16,107.00 L 181.80,107.00 L 325.66,107.00 L 327.06,104.39 L 327.33,103.88 L 328.19,102.69 L 328.66,102.08 L 329.86,100.74 L 331.13,99.38 L 334.32,96.51 L 335.98,95.09 L 339.47,92.52 L 340.33,91.93 L 341.99,90.89 L 344.31,89.63 L 346.30,88.69 L 350.40,87.29 L 352.46,86.67 L 356.62,85.91 L 358.71,85.60 L 362.88,85.47 L 364.97,85.49 L 369.09,85.98 L 371.14,86.30 L 375.15,87.41 L 377.13,88.03 L 380.96,89.74 L 382.85,90.67 L 386.44,92.97 L 391.48,97.07 L 392.64,98.16 L 394.72,100.40 L 395.72,101.53 L 397.49,103.85 L 398.34,105.02 L 399.82,107.43 L 400.52,108.65 L 401.71,111.16 L 402.26,112.43 L 403.16,115.07 L 403.57,116.40 L 404.19,119.16 L 404.46,120.56 L 404.80,123.47 L 405.00,128.00 L 405.00,129.54 L 404.80,132.51 L 404.66,133.97 L 404.19,136.80 L 403.92,138.20 L 403.17,140.89 L 402.76,142.22 L 401.73,144.79 L 401.18,146.06 L 399.86,148.51 L 399.17,149.73 L 397.56,152.07 L 396.73,153.24 L 394.83,155.49 L 391.65,158.77 L 390.03,160.30 L 386.93,162.78 L 385.38,163.94 L 382.22,165.78 L 380.60,166.63 L 377.09,167.96 L 371.14,169.56 L 370.17,169.76 L 368.46,170.10 L 367.64,170.26 L 366.19,170.49 L 364.79,170.70 L 362.38,170.82 L 361.18,170.82 L 358.66,170.53 L 357.99,170.43 L 356.51,170.16 L 355.75,170.01 M 460.50,147.40 L 459.47,146.84 L 457.61,145.58 L 456.71,144.93 L 455.10,143.52 L 454.33,142.79 L 452.97,141.24 L 452.33,140.45 L 451.23,138.79 L 450.19,137.10 L 448.89,133.50 L 448.36,131.67 L 448.08,127.94 L 448.06,126.08 L 448.80,122.41 L 449.05,121.51 L 449.74,119.75 L 450.12,118.88 L 451.07,117.20 L 451.57,116.38 L 452.77,114.81 L 453.41,114.04 L 454.87,112.60 L 455.63,111.90 L 457.35,110.62 L 460.21,108.91 L 461.34,108.33 L 464.15,107.57 L 465.61,107.26 L 468.77,107.05 L 470.37,107.02 L 473.51,107.38 L 477.77,108.55 L 478.72,108.95 L 480.47,109.91 L 481.32,110.41 L 482.86,111.56 L 483.60,112.16 L 484.92,113.49 L 485.56,114.17 L 486.67,115.64 L 487.72,117.14 L 489.18,120.47 L 489.80,122.17 L 490.36,125.76 L 490.53,127.56 L 490.18,131.19 L 489.89,133.00 L 488.61,136.49 L 487.86,138.19 L 485.63,141.33 L 485.01,142.08 L 483.60,143.49 L 481.21,145.43 L 480.32,146.05 L 478.77,146.96 L 478.00,147.37 L 476.46,147.93 L 475.65,148.17 L 473.77,148.47 L 470.21,148.73 L 469.01,148.79 L 466.98,148.78 L 466.01,148.75 L 464.36,148.58 L 463.58,148.47 L 462.25,148.13 L 461.61,147.93 Z" fill="rgba(255,255,255,1)"/>
</g>
</svg>