<svg xmlns="http://www.w3.org/2000/svg" width="22" height="22" viewBox="0 0 512 512">
<g>
<path d="M 417.32,495.90 L 415.61,495.62 L 412.16,494.77 L 410.44,494.31 L 406.99,493.12 L 405.27,492.49 L 401.86,490.98 L 400.17,490.18 L 396.82,488.36 L 395.16,487.41 L 391.91,485.30 L 390.30,484.21 L 387.18,481.82 L 385.63,480.59 L 382.67,477.95 L 378.43,473.71 L 377.60,472.82 L 375.76,470.73 L 374.81,469.63 L 372.74,467.15 L 371.69,465.87 L 369.43,463.05 L 368.28,461.61 L 365.86,458.50 L 363.41,455.33 L 358.16,448.29 L 355.50,444.69 L 350.01,437.06 L 347.26,433.20 L 341.80,425.33 L 339.09,421.40 L 333.90,413.64 L 331.37,409.81 L 326.70,402.52 L 325.58,400.74 L 323.48,397.34 L 320.57,392.50 L 319.76,391.12 L 318.21,388.53 L 317.46,387.27 L 316.15,385.09 L 315.53,384.08 L 314.60,382.57 L 314.39,382.25 L 314.08,381.77 L 313.79,381.33 L 313.62,381.12 L 313.00,381.00 L 312.64,380.99 L 311.55,381.31 L 310.93,381.52 L 309.29,382.30 L 306.10,384.01 L 304.07,385.16 L 299.72,387.40 L 297.51,388.51 L 292.84,390.65 L 290.47,391.70 L 285.55,393.72 L 283.06,394.70 L 277.95,396.57 L 272.80,398.39 L 262.24,401.49 L 246.52,405.12 L 244.76,405.45 L 240.67,406.03 L 238.54,406.30 L 233.90,406.77 L 231.52,406.99 L 226.52,407.33 L 223.99,407.48 L 218.83,407.70 L 216.25,407.79 L 211.13,407.87 L 208.59,407.89 L 203.72,407.82 L 201.33,407.77 L 196.90,407.56 L 190.97,407.06 L 185.23,406.40 L 173.99,404.41 L 168.41,403.30 L 157.51,400.42 L 152.11,398.87 L 141.59,395.12 L 136.38,393.13 L 126.28,388.53 L 121.29,386.12 L 111.64,380.68 L 106.88,377.86 L 97.73,371.60 L 93.21,368.37 L 84.59,361.31 L 72.29,349.85 L 68.60,346.11 L 61.78,338.44 L 58.47,334.57 L 52.40,326.62 L 49.45,322.61 L 44.09,314.36 L 41.50,310.18 L 36.85,301.58 L 34.60,297.23 L 30.63,288.23 L 28.72,283.68 L 25.40,274.27 L 23.83,269.50 L 21.15,259.62 L 17.84,244.23 L 17.48,242.24 L 16.88,237.60 L 16.60,235.20 L 16.17,229.94 L 15.97,227.25 L 15.71,221.59 L 15.61,218.72 L 15.52,212.89 L 15.49,209.97 L 15.58,204.20 L 15.64,201.34 L 15.90,195.86 L 16.06,193.18 L 16.49,188.22 L 17.35,181.62 L 18.03,177.52 L 19.74,169.44 L 20.66,165.42 L 22.82,157.53 L 23.95,153.60 L 26.56,145.91 L 27.92,142.08 L 30.97,134.59 L 32.55,130.88 L 36.03,123.61 L 37.82,120.01 L 41.73,112.98 L 43.74,109.50 L 48.07,102.72 L 55.04,92.86 L 56.05,91.52 L 58.55,88.49 L 59.86,86.92 L 62.85,83.56 L 64.39,81.85 L 67.73,78.31 L 69.43,76.53 L 72.96,72.96 L 74.73,71.18 L 78.31,67.73 L 80.09,66.03 L 83.56,62.85 L 85.27,61.31 L 88.49,58.55 L 92.86,55.04 L 96.08,52.62 L 102.72,48.08 L 106.07,45.86 L 112.97,41.74 L 116.45,39.73 L 123.60,36.03 L 127.20,34.24 L 134.58,30.98 L 138.29,29.40 L 145.89,26.57 L 149.71,25.21 L 157.51,22.82 L 161.44,21.69 L 169.43,19.75 L 181.62,17.35 L 183.68,17.00 L 187.82,16.49 L 189.93,16.26 L 194.58,15.94 L 195.79,15.88 L 198.42,15.78 L 199.77,15.73 L 202.70,15.67 L 204.22,15.65 L 207.53,15.62 L 213.00,15.63 L 215.22,15.64 L 219.08,15.68 L 220.92,15.70 L 224.16,15.77 L 225.72,15.81 L 228.49,15.93 L 229.84,16.00 L 232.31,16.17 L 234.74,16.37 L 239.36,16.99 L 240.55,17.17 L 243.07,17.60 L 247.22,18.37 L 252.03,19.29 L 261.43,21.61 L 266.09,22.85 L 275.19,25.79 L 279.69,27.33 L 288.47,30.86 L 292.81,32.70 L 301.23,36.81 L 305.40,38.93 L 313.45,43.59 L 317.43,45.99 L 325.10,51.18 L 328.88,53.84 L 336.13,59.55 L 339.70,62.46 L 346.52,68.65 L 349.87,71.81 L 356.23,78.47 L 359.35,81.86 L 365.23,88.98 L 368.10,92.59 L 373.48,100.13 L 376.10,103.95 L 380.96,111.90 L 383.32,115.92 L 387.62,124.26 L 389.71,128.47 L 393.44,137.18 L 395.24,141.57 L 398.39,150.62 L 402.43,164.55 L 403.44,168.58 L 405.05,176.91 L 405.78,181.12 L 406.83,189.72 L 407.28,194.05 L 407.77,202.82 L 407.95,207.23 L 407.88,216.08 L 407.78,220.51 L 407.16,229.34 L 406.78,233.75 L 405.61,242.46 L 404.96,246.80 L 403.24,255.30 L 400.04,267.70 L 399.60,269.19 L 398.56,272.38 L 398.02,274.00 L 396.81,277.38 L 395.56,280.79 L 392.73,287.78 L 391.29,291.24 L 388.30,297.75 L 387.55,299.32 L 386.09,302.22 L 383.98,306.16 L 380.09,313.01 L 382.30,314.41 L 382.45,314.50 L 382.98,314.83 L 383.29,315.02 L 384.10,315.52 L 384.97,316.06 L 387.38,317.52 L 388.66,318.31 L 391.67,320.14 L 396.50,323.07 L 400.57,325.53 L 408.90,330.80 L 413.08,333.48 L 421.45,339.04 L 425.62,341.84 L 433.78,347.50 L 437.81,350.33 L 445.51,355.91 L 449.27,358.68 L 456.25,363.99 L 457.94,365.30 L 461.13,367.82 L 462.70,369.07 L 465.63,371.46 L 467.06,372.64 L 469.69,374.88 L 470.96,375.98 L 473.27,378.04 L 474.37,379.05 L 476.31,380.91 L 478.78,383.45 L 480.17,384.97 L 482.71,388.12 L 483.94,389.72 L 486.16,393.01 L 487.23,394.68 L 489.13,398.10 L 490.04,399.82 L 491.61,403.34 L 492.36,405.11 L 493.62,408.72 L 494.21,410.54 L 495.14,414.22 L 495.57,416.07 L 496.18,419.80 L 496.45,421.67 L 496.73,425.44 L 496.83,427.33 L 496.80,431.12 L 496.73,433.01 L 496.37,436.80 L 496.15,438.69 L 495.45,442.46 L 495.06,444.35 L 494.04,448.09 L 493.49,449.95 L 492.14,453.64 L 491.42,455.47 L 489.74,459.09 L 488.86,460.89 L 486.85,464.43 L 483.46,469.61 L 481.68,472.10 L 477.57,476.64 L 475.43,478.83 L 470.68,482.73 L 468.23,484.59 L 462.95,487.81 L 460.25,489.33 L 454.55,491.82 L 451.65,492.97 L 445.62,494.70 L 442.58,495.46 L 436.33,496.38 L 433.20,496.74 L 426.85,496.80 L 423.67,496.73 M 233.50,332.99 L 235.75,332.58 L 240.29,331.52 L 242.57,330.95 L 247.14,329.60 L 249.42,328.88 L 253.96,327.26 L 256.22,326.42 L 260.68,324.55 L 262.89,323.59 L 267.22,321.50 L 269.37,320.42 L 273.52,318.12 L 275.57,316.95 L 279.49,314.47 L 285.06,310.58 L 288.40,308.07 L 294.61,302.66 L 297.62,299.90 L 303.17,294.04 L 305.86,291.05 L 310.73,284.77 L 313.09,281.59 L 317.29,274.95 L 319.31,271.59 L 322.83,264.64 L 324.51,261.13 L 327.34,253.92 L 328.66,250.29 L 330.80,242.88 L 331.77,239.15 L 333.20,231.57 L 333.82,227.77 L 334.53,220.10 L 334.79,216.25 L 334.78,208.52 L 334.68,204.65 L 333.93,196.92 L 333.46,193.06 L 331.98,185.37 L 331.14,181.54 L 328.90,173.96 L 327.68,170.18 L 324.69,162.75 L 323.09,159.06 L 319.33,151.82 L 312.81,141.26 L 311.49,139.32 L 308.48,135.44 L 306.92,133.50 L 303.52,129.67 L 301.77,127.77 L 298.03,124.04 L 296.13,122.20 L 292.13,118.65 L 290.11,116.90 L 285.92,113.58 L 283.81,111.95 L 279.51,108.92 L 277.35,107.45 L 273.00,104.78 L 266.50,101.23 L 263.55,99.77 L 257.36,97.20 L 254.23,95.98 L 247.74,93.92 L 244.47,92.95 L 237.76,91.40 L 234.40,90.70 L 227.56,89.68 L 224.14,89.23 L 217.26,88.75 L 213.82,88.58 L 206.98,88.65 L 203.57,88.75 L 196.85,89.38 L 187.00,90.96 L 183.99,91.58 L 178.08,93.16 L 175.15,94.00 L 169.43,95.98 L 166.60,97.03 L 161.08,99.41 L 158.35,100.65 L 153.05,103.41 L 150.43,104.84 L 145.37,107.96 L 142.86,109.57 L 138.05,113.04 L 135.68,114.82 L 131.14,118.61 L 128.90,120.55 L 124.64,124.66 L 122.55,126.75 L 118.60,131.15 L 116.66,133.39 L 113.02,138.07 L 111.25,140.44 L 107.95,145.38 L 106.35,147.88 L 103.40,153.06 L 101.98,155.69 L 99.40,161.09 L 98.16,163.83 L 95.98,169.44 L 94.94,172.28 L 93.16,178.09 L 90.96,187.00 L 90.61,188.67 L 90.04,192.30 L 89.77,194.15 L 89.36,198.06 L 88.98,202.03 L 88.72,210.34 L 88.67,214.48 L 89.06,222.51 L 89.20,224.45 L 89.60,228.14 L 90.39,233.25 L 90.85,235.66 L 91.96,240.39 L 92.54,242.74 L 93.88,247.36 L 94.59,249.65 L 96.17,254.13 L 96.99,256.36 L 98.80,260.71 L 99.73,262.87 L 101.77,267.08 L 102.81,269.17 L 105.07,273.24 L 106.23,275.25 L 108.70,279.17 L 109.97,281.11 L 112.66,284.86 L 114.03,286.72 L 116.92,290.32 L 118.39,292.09 L 121.49,295.51 L 123.07,297.20 L 126.36,300.45 L 128.03,302.05 L 131.53,305.11 L 133.29,306.62 L 136.97,309.49 L 138.84,310.90 L 142.70,313.58 L 144.65,314.89 L 148.70,317.37 L 154.96,320.85 L 158.35,322.61 L 165.05,325.56 L 168.43,326.95 L 175.43,329.26 L 179.00,330.35 L 186.70,332.15 L 188.69,332.57 L 192.87,333.34 L 199.50,334.40 L 200.12,334.49 L 202.11,334.60 L 203.21,334.64 L 205.98,334.65 L 207.44,334.65 L 210.72,334.59 L 212.40,334.54 L 215.93,334.41 L 217.70,334.34 L 221.21,334.15 L 222.93,334.05 L 226.16,333.81 L 227.71,333.69 L 230.39,333.42 L 231.63,333.28 Z" fill="rgba(255,255,255,1)"/>
</g>
</svg>